# xmcd CD database file
# Copyright (C) 1996 Ti Kan
#
# Track frame offsets:
#  183
#  18425
#  33620
#  62180
#  81593
#  95640
#  115810
#  140868
#  161203
#  180225
#
# Disc length: 2705 seconds
#
# Revision: 1
# Processed by: cddbd v1.4b41PL1 Copyright (c) Steve Scherf et al.
# Submitted via: CDWizzard Release:4.12
#
DISCID=8e0a8f0a
DTITLE=Young, Mighty Joe - Legacy of the Blues - Vol. 4
DYEAR=1900
DGENRE=
TTITLE0=Rock Me Baby
TTITLE1=Baby Please
TTITLE2=Just A Minute
TTITLE3=Drivin' Wheel
TTITLE4=Wishy Washy Woman
TTITLE5=Early In The Morning
TTITLE6=Sweet Kisses
TTITLE7=Lookin' For You
TTITLE8=It's All Right
TTITLE9=I Have The Same Old Blues
EXTD=Recorded in Chicago, 1972\n\nMighty Joe Young:  guitar and vocals\nB
EXTD=ob Reidy:  piano\nSylvester Boines:  bass\nAlvino Bennett:  drums\nC
EXTD=harles Beecham:  trumpet\nWalter Hambrick:  tenor\n\nSubmitted 6/23/
EXTD=97\n[Jmccoy@efn.org]
EXTT0=
EXTT1=
EXTT2=
EXTT3=
EXTT4=
EXTT5=
EXTT6=
EXTT7=
EXTT8=
EXTT9=
PLAYORDER=
